# xmcd CD database file
#
# Track frame offsets:
#	150
#	17851
#	38803
#	56670
#	82554
#	98707
#	119318
#	138074
#	161890
#
# Disc length: 2496 seconds
#
# Revision: 0
# Processed by: cddbd v1.5.2PL0 Copyright (c) Steve Scherf et al.
# Submitted via: CDex 1.51
#
DISCID=6609be09
DTITLE=Carter and Bodlovich - The Shadow Out Of Time
DYEAR=2006
DGENRE=Jazz
TTITLE0=Samba For Satch
TTITLE1="Q"
TTITLE2=Untitled Blues
TTITLE3=Shock T
TTITLE4=DBV
TTITLE5=The Nihilist
TTITLE6=The Moose
TTITLE7=Dr. Saperstien
TTITLE8=The Shadow Out of Time
EXTD=YEAR: 2006
EXTT0=
EXTT1=
EXTT2=
EXTT3=
EXTT4=
EXTT5=
EXTT6=
EXTT7=
EXTT8=
PLAYORDER=
